<svg xmlns="http://www.w3.org/2000/svg" xmlns:svg="http://www.w3.org/2000/svg" id="svg6517" width="96" height="96" version="1.1"><defs id="defs6519"><linearGradient id="Background"><stop id="stop4178" offset="0" style="stop-color:#b8b8b8;stop-opacity:1"/><stop id="stop4180" offset="1" style="stop-color:#c9c9c9;stop-opacity:1"/></linearGradient><filter style="color-interpolation-filters:sRGB" id="filter1121"><feFlood id="feFlood1123" flood-color="#000" flood-opacity=".6" result="flood"/><feComposite id="feComposite1125" in="flood" in2="SourceGraphic" operator="out" result="composite1"/><feGaussianBlur id="feGaussianBlur1127" in="composite1" result="blur" stdDeviation="1"/><feOffset id="feOffset1129" dx="0" dy="2" result="offset"/><feComposite id="feComposite1131" in="offset" in2="SourceGraphic" operator="atop" result="composite2"/></filter><filter style="color-interpolation-filters:sRGB" id="filter950"><feFlood id="feFlood952" flood-color="#000" flood-opacity=".25" result="flood"/><feComposite id="feComposite954" in="flood" in2="SourceGraphic" operator="in" result="composite1"/><feGaussianBlur id="feGaussianBlur956" in="composite1" result="blur" stdDeviation="1"/><feOffset id="feOffset958" dx="0" dy="1" result="offset"/><feComposite id="feComposite960" in="SourceGraphic" in2="offset" operator="over" result="composite2"/></filter><clipPath id="clipPath873" clipPathUnits="userSpaceOnUse"><g id="g875" transform="matrix(0,-0.66666667,0.66604479,0,-258.25992,677.00001)" style="fill:#f0f;fill-opacity:1;stroke:none;display:inline"><path style="fill:#f0f;fill-opacity:1;stroke:none;display:inline" id="path877" d="m 46.702703,898.22775 50.594594,0 C 138.16216,898.22775 144,904.06497 144,944.92583 l 0,50.73846 c 0,40.86071 -5.83784,46.69791 -46.702703,46.69791 l -50.594594,0 C 5.8378378,1042.3622 0,1036.525 0,995.66429 L 0,944.92583 C 0,904.06497 5.8378378,898.22775 46.702703,898.22775 Z"/></g></clipPath><filter id="filter891"><feGaussianBlur id="feGaussianBlur893" stdDeviation=".72"/></filter></defs><metadata id="metadata6522"/><g id="layer1" transform="translate(268,-635.29076)" style="display:inline"><path style="fill:#fff;fill-opacity:1;stroke:none;display:inline;filter:url(#filter1121)" id="path6455" d="m -268,700.15563 0,-33.72973 c 0,-27.24324 3.88785,-31.13513 31.10302,-31.13513 l 33.79408,0 c 27.21507,0 31.1029,3.89189 31.1029,31.13513 l 0,33.72973 c 0,27.24325 -3.88783,31.13514 -31.1029,31.13514 l -33.79408,0 C -264.11215,731.29077 -268,727.39888 -268,700.15563 Z"/></g><g id="layer3" style="display:inline"><path style="fill:#dd4814" id="path4010" d="m 80.02465,48.074075 c 0,17.686843 -14.339141,32.025811 -32.0271,32.025811 -17.687958,0 -32.026421,-14.338743 -32.026421,-32.025811 0,-17.688199 14.338241,-32.026715 32.026195,-32.026715 17.68796,0 32.027326,14.338516 32.027326,32.026715 z"/><path style="fill:#fff" id="path4012" d="m 26.220054,43.798393 c -2.362021,0 -4.275962,1.913911 -4.275962,4.275907 0,2.361093 1.913941,4.275231 4.275962,4.275231 2.361119,0 4.275282,-1.914138 4.275282,-4.275231 0,-2.362222 -1.913941,-4.275907 -4.275282,-4.275907 z m 30.529623,19.433315 c -2.045225,1.18066 -2.745267,3.794605 -1.565046,5.838898 1.1809,2.045195 3.794652,2.745681 5.839872,1.565023 2.044543,-1.180434 2.74504,-3.79438 1.564365,-5.839349 -1.180448,-2.044293 -3.794653,-2.745006 -5.839191,-1.564572 z M 35.507719,48.073623 c 0,-4.225745 2.099906,-7.958209 5.311109,-10.218297 l -3.126015,-5.236253 c -3.742,2.500061 -6.52546,6.322008 -7.681724,10.798345 1.350601,1.100895 2.213568,2.777317 2.213568,4.656657 0,1.878886 -0.862967,3.55531 -2.21379,4.655978 1.156042,4.47679 3.93971,8.298736 7.681724,10.798571 L 40.818828,58.29192 C 37.607625,56.032284 35.507719,52.300044 35.507719,48.073623 z M 47.998001,35.583488 c 6.525227,0 11.877689,5.003059 12.438766,11.382461 l 6.093858,-0.08903 c -0.29986,-4.709984 -2.357282,-8.939569 -5.519227,-12.048149 -1.625601,0.614168 -3.503606,0.521072 -5.126722,-0.416225 -1.625149,-0.938201 -2.644935,-2.52085 -2.924231,-4.238398 -1.579953,-0.437239 -3.242841,-0.67563 -4.962218,-0.67563 -2.956999,0 -5.750608,0.694159 -8.232178,1.9234 l 2.970551,5.323701 c 1.599166,-0.744098 3.381133,-1.162131 5.261401,-1.162131 z m 0,24.980495 c -1.88049,0 -3.662235,-0.418033 -5.261623,-1.162131 l -2.971009,5.324152 c 2.481792,1.22879 5.275637,1.923176 8.232632,1.923176 1.719377,0 3.382263,-0.238391 4.962444,-0.67563 0.279296,-1.71755 1.299306,-3.300198 2.924683,-4.239076 1.623114,-0.936846 3.501122,-1.029942 5.126723,-0.415548 3.16172,-3.108806 5.219142,-7.338391 5.518545,-12.048375 l -6.093857,-0.08903 c -0.560621,6.380306 -5.913311,11.382461 -12.438538,11.382461 z m 8.750994,-27.648671 c 2.044997,1.18111 4.6592,0.480398 5.83942,-1.563894 1.1809,-2.045197 0.480858,-4.659142 -1.564362,-5.840027 -2.04477,-1.180434 -4.658747,-0.479947 -5.839647,1.565249 -1.180448,2.044291 -0.479954,4.658463 1.564589,5.838672 z"/></g><g id="layer2" style="display:none"><g style="display:inline" id="g4394" clip-path="none" transform="translate(-340.00001,-581)"><g id="g855"><g id="g870" clip-path="url(#clipPath873)" style="opacity:.6;filter:url(#filter891)"><path id="path844" d="m 264,552.36218 c 0,6.62742 -5.37258,12 -12,12 -6.62742,0 -12,-5.37258 -12,-12 0,-6.62741 5.37258,-12 12,-12 6.62742,0 12,5.37259 12,12 z" transform="matrix(1.4999992,0,0,1.4999992,-29.999795,-237.54282)" style="color:#000;fill:#000;fill-opacity:1;fill-rule:nonzero;stroke:none;stroke-width:4;marker:none;visibility:visible;display:inline;overflow:visible;enable-background:accumulate"/></g><g id="g862"><path style="color:#000;fill:#f5f5f5;fill-opacity:1;fill-rule:nonzero;stroke:none;stroke-width:4;marker:none;visibility:visible;display:inline;overflow:visible;enable-background:accumulate" id="path4398" d="m 264,552.36218 c 0,6.62742 -5.37258,12 -12,12 -6.62742,0 -12,-5.37258 -12,-12 0,-6.62741 5.37258,-12 12,-12 6.62742,0 12,5.37259 12,12 z" transform="matrix(1.4999992,0,0,1.4999992,-29.999795,-238.54282)"/><path id="path4400" d="m 264,552.36218 c 0,6.62742 -5.37258,12 -12,12 -6.62742,0 -12,-5.37258 -12,-12 0,-6.62741 5.37258,-12 12,-12 6.62742,0 12,5.37259 12,12 z" transform="matrix(1.25,0,0,1.25,33,-100.45273)" style="color:#000;fill:#dd4814;fill-opacity:1;fill-rule:nonzero;stroke:none;stroke-width:4;marker:none;visibility:visible;display:inline;overflow:visible;enable-background:accumulate"/><path style="color:#000;fill:#f5f5f5;fill-opacity:1;fill-rule:nonzero;stroke:none;stroke-width:3;marker:none;visibility:visible;display:inline;overflow:visible;enable-background:accumulate" id="path4459" d="m 669.8173,595.77657 c -0.39132,0.22593 -3.62645,-1.90343 -4.07583,-1.95066 -0.44938,-0.0472 -4.05653,1.36297 -4.39232,1.06062 -0.3358,-0.30235 0.68963,-4.03715 0.59569,-4.47913 -0.0939,-0.44198 -2.5498,-3.43681 -2.36602,-3.8496 0.18379,-0.41279 4.05267,-0.59166 4.44398,-0.81759 0.39132,-0.22593 2.48067,-3.48704 2.93005,-3.4398 0.44938,0.0472 1.81505,3.67147 2.15084,3.97382 0.3358,0.30236 4.08294,1.2817 4.17689,1.72369 0.0939,0.44198 -2.9309,2.86076 -3.11469,3.27355 -0.18379,0.41279 0.0427,4.27917 -0.34859,4.5051 z" transform="matrix(1.511423,-0.16366377,0.16366377,1.511423,-755.37346,-191.93651)"/></g></g></g></g></svg>