<svg xmlns="http://www.w3.org/2000/svg" xmlns:svg="http://www.w3.org/2000/svg" xmlns:xlink="http://www.w3.org/1999/xlink" id="svg4249" width="96" height="96" version="1.1" viewBox="0 0 25.4 25.4"><defs id="defs4251"><linearGradient id="linearGradient4210"><stop style="stop-color:#000;stop-opacity:1" id="stop4212" offset="0"/><stop style="stop-color:#000;stop-opacity:0" id="stop4214" offset="1"/></linearGradient><linearGradient id="linearGradient4173"><stop style="stop-color:#6b3c2b;stop-opacity:1" id="stop4175" offset="0"/><stop style="stop-color:#a95d40;stop-opacity:1" id="stop4177" offset="1"/></linearGradient><filter style="color-interpolation-filters:sRGB" id="filter1121"><feFlood id="feFlood1123" flood-color="#000" flood-opacity=".6" result="flood"/><feComposite id="feComposite1125" in="flood" in2="SourceGraphic" operator="out" result="composite1"/><feGaussianBlur id="feGaussianBlur1127" in="composite1" result="blur" stdDeviation="1"/><feOffset id="feOffset1129" dx="0" dy="2" result="offset"/><feComposite id="feComposite1131" in="offset" in2="SourceGraphic" operator="atop" result="composite2"/></filter><filter style="color-interpolation-filters:sRGB" id="filter4200" width="1.048" height="1.048" x="-.024" y="-.024"><feGaussianBlur id="feGaussianBlur4202" stdDeviation=".088"/></filter><filter style="color-interpolation-filters:sRGB" id="filter4206" width="1.192" height="1.192" x="-.096" y="-.096"><feGaussianBlur id="feGaussianBlur4208" stdDeviation=".352"/></filter><linearGradient id="linearGradient4216" x1="-421.122" x2="-416.434" y1="82.231" y2="82.231" gradientTransform="translate(-0.03059077,0.36458333)" gradientUnits="userSpaceOnUse" spreadMethod="reflect" xlink:href="#linearGradient4210"/><linearGradient id="linearGradient4219" x1="-423.16" x2="-416.584" y1="65.248" y2="90.474" gradientUnits="userSpaceOnUse" xlink:href="#linearGradient4173"/><filter style="color-interpolation-filters:sRGB" id="filter4309" width="1.048" height="1.048" x="-.024" y="-.024"><feGaussianBlur id="feGaussianBlur4311" stdDeviation=".088"/></filter><linearGradient id="linearGradient4173-9"><stop style="stop-color:#7843ad;stop-opacity:1" id="stop4175-2" offset="0"/><stop style="stop-color:#937fdb;stop-opacity:1" id="stop4177-7" offset="1"/></linearGradient><linearGradient id="linearGradient908" x1="-229.441" x2="-229.441" y1="636.228" y2="731.291" gradientTransform="translate(277.6,-625.69077)" gradientUnits="userSpaceOnUse" xlink:href="#linearGradient4173-9"/><filter style="color-interpolation-filters:sRGB" id="filter1121-5"><feFlood id="feFlood1123-0" flood-color="#000" flood-opacity=".6" result="flood"/><feComposite id="feComposite1125-8" in="flood" in2="SourceGraphic" operator="out" result="composite1"/><feGaussianBlur id="feGaussianBlur1127-6" in="composite1" result="blur" stdDeviation="1"/><feOffset id="feOffset1129-5" dx="0" dy="2" result="offset"/><feComposite id="feComposite1131-1" in="offset" in2="SourceGraphic" operator="atop" result="composite2"/></filter></defs><metadata id="metadata4254"/><g id="layer1" transform="translate(433.76548,-65.073809)"><path style="display:inline;fill:url(#linearGradient908);fill-opacity:1;stroke:none;filter:url(#filter1121-5)" id="path6455" d="M 9.6000004,74.46486 V 40.73513 C 9.6000004,13.49189 13.48785,9.6000004 40.70302,9.6000004 H 74.4971 c 27.21507,0 31.1029,3.8918896 31.1029,31.1351296 V 74.46486 C 105.6,101.70811 101.71217,105.6 74.4971,105.6 H 40.70302 C 13.48785,105.6 9.6000004,101.70811 9.6000004,74.46486 Z" transform="matrix(0.26458333,0,0,0.26458333,-436.30548,62.533811)"/><g id="g4211"><circle id="circle4258" cx="142.72" cy="-399.448" r="4.399" transform="rotate(-120)" style="color:#000;display:inline;overflow:visible;visibility:visible;opacity:1;fill:#b5baea;fill-opacity:1;fill-rule:nonzero;stroke:none;stroke-width:.06614583;stroke-linecap:butt;stroke-linejoin:bevel;stroke-miterlimit:4;stroke-dasharray:none;stroke-dashoffset:1;stroke-opacity:1;marker:none;enable-background:accumulate"/><path id="ellipse4298" d="m -411.74667,75.235464 a 5.6223427,5.6223427 0 0 1 -1.76268,5.038968 2.6723602,2.6723605 60 0 0 2.2288,-0.201021 2.6723602,2.6723605 60 0 0 0.97824,-3.650423 2.6723602,2.6723605 60 0 0 -1.44436,-1.187524 z" style="color:#000;display:inline;overflow:visible;visibility:visible;opacity:1;fill:#b5baea;fill-opacity:1;fill-rule:nonzero;stroke:none;stroke-width:.06614583;stroke-linecap:butt;stroke-linejoin:bevel;stroke-miterlimit:4;stroke-dasharray:none;stroke-dashoffset:1;stroke-opacity:1;marker:none;enable-background:accumulate"/><path id="ellipse4300" d="m -430.41736,75.242698 a 2.6723602,2.6723605 60 0 0 -0.44184,0.202055 2.6723602,2.6723605 60 0 0 -0.97823,3.650423 2.6723602,2.6723605 60 0 0 3.18378,1.189592 5.6488129,5.6488129 0 0 1 -1.76371,-5.04207 z" style="color:#000;display:inline;overflow:visible;visibility:visible;opacity:1;fill:#b5baea;fill-opacity:1;fill-rule:nonzero;stroke:none;stroke-width:.06614583;stroke-linecap:butt;stroke-linejoin:bevel;stroke-miterlimit:4;stroke-dasharray:none;stroke-dashoffset:1;stroke-opacity:1;marker:none;enable-background:accumulate"/><circle id="circle4302" cx="278.345" cy="329.859" r="4.399" transform="rotate(120)" style="color:#000;display:inline;overflow:visible;visibility:visible;opacity:1;fill:#b5baea;fill-opacity:1;fill-rule:nonzero;stroke:none;stroke-width:.06614583;stroke-linecap:butt;stroke-linejoin:bevel;stroke-miterlimit:4;stroke-dasharray:none;stroke-dashoffset:1;stroke-opacity:1;marker:none;enable-background:accumulate"/><circle style="color:#000;display:inline;overflow:visible;visibility:visible;opacity:1;fill:none;fill-opacity:1;fill-rule:nonzero;stroke:none;stroke-width:.06614583;stroke-linecap:butt;stroke-linejoin:bevel;stroke-miterlimit:4;stroke-dasharray:none;stroke-dashoffset:1;stroke-opacity:1;marker:none;enable-background:accumulate" id="circle4260" cx="278.345" cy="329.859" r="4.399" transform="rotate(120)"/><g id="g4251"><ellipse style="color:#000;display:inline;overflow:visible;visibility:visible;opacity:1;fill:#e93549;fill-opacity:1;fill-rule:nonzero;stroke:none;stroke-width:.52916664;stroke-linecap:butt;stroke-linejoin:bevel;stroke-miterlimit:4;stroke-dasharray:none;stroke-dashoffset:1;stroke-opacity:1;marker:none;enable-background:accumulate" id="path4214" cx="-424.097" cy="77.691" rx="2.873" ry="2.608"/><path style="color:#000;font-style:normal;font-variant:normal;font-weight:400;font-stretch:normal;font-size:medium;line-height:normal;font-family:sans-serif;font-variant-ligatures:normal;font-variant-position:normal;font-variant-caps:normal;font-variant-numeric:normal;font-variant-alternates:normal;font-feature-settings:normal;text-indent:0;text-align:start;text-decoration:none;text-decoration-line:none;text-decoration-style:solid;text-decoration-color:#000;letter-spacing:normal;word-spacing:normal;text-transform:none;direction:ltr;block-progression:tb;writing-mode:lr-tb;baseline-shift:baseline;text-anchor:start;white-space:normal;shape-padding:0;clip-rule:nonzero;display:inline;overflow:visible;visibility:visible;opacity:1;isolation:auto;mix-blend-mode:normal;color-interpolation:sRGB;color-interpolation-filters:linearRGB;solid-color:#000;solid-opacity:1;fill:#fac82e;fill-opacity:1;fill-rule:evenodd;stroke:none;stroke-width:1.62029862;stroke-linecap:butt;stroke-linejoin:miter;stroke-miterlimit:4;stroke-dasharray:none;stroke-dashoffset:0;stroke-opacity:1;color-rendering:auto;image-rendering:auto;shape-rendering:auto;text-rendering:auto;enable-background:accumulate" id="path4250" d="m -421.07726,76.865803 c -0.51742,-1.228148 -1.71184,-2.130204 -3.12526,-2.110596 -1.63008,0.02261 -3.05795,1.348806 -3.03003,3.021432 0.024,1.440786 1.1986,2.702933 2.67943,2.673759 1.2701,-0.02502 2.38123,-1.062332 2.35124,-2.370197 -0.0256,-1.116744 -0.9395,-2.093655 -2.09196,-2.063225 -0.97951,0.02586 -1.8356,0.8293 -1.80505,1.842692 0.0258,0.857219 0.73098,1.605876 1.62046,1.57546 0.74873,-0.0256 1.40179,-0.642389 1.37171,-1.421981 -0.0252,-0.652969 -0.56437,-1.222818 -1.247,-1.193218 -0.56888,0.02467 -1.0655,0.496438 -1.03647,1.093998 0.0241,0.495457 0.43689,0.92689 0.96027,0.898468 0.42566,-0.02311 0.78988,-0.376833 0.77361,-0.826698 0.002,0.01802 0.0202,0.02969 0.0209,0.04797 0.0181,0.468213 -0.39328,0.856542 -0.86149,0.872553 -0.57877,0.01979 -1.05524,-0.486317 -1.07261,-1.062464 -0.0212,-0.703303 0.59201,-1.279668 1.28994,-1.298097 0.84295,-0.02226 1.52947,0.711494 1.54861,1.546186 0.0229,0.998886 -0.84498,1.809475 -1.83259,1.828933 -1.17235,0.0231 -2.12042,-0.994455 -2.13975,-2.152344 -0.0228,-1.364615 1.16138,-2.465655 2.50819,-2.48434 1.57699,-0.02188 2.84624,1.346793 2.86372,2.902457 0.0177,1.573924 -1.18694,2.933664 -2.72277,3.221011 l 0.0967,0.519959 c 1.7824,-0.33348 3.17562,-1.901645 3.15489,-3.746914 -0.005,-0.459824 -0.10216,-0.90542 -0.27464,-1.314802 z m -3.34606,1.01309 0.0586,0.185969 c -0.0645,0.0068 -0.1024,-0.03159 -0.10651,-0.07541 -0.003,-0.0356 0.0118,-0.05013 0.0291,-0.05158 0.001,-9.2e-5 -0.0128,-0.01359 -0.0139,-0.02874 -10e-4,-0.01334 0.0241,-0.0173 0.0328,-0.03024 z"/><ellipse id="ellipse4216" cx="-418.057" cy="77.691" rx="2.853" ry="2.608" style="color:#000;display:inline;overflow:visible;visibility:visible;opacity:1;fill:#e93549;fill-opacity:1;fill-rule:nonzero;stroke:none;stroke-width:.52916664;stroke-linecap:butt;stroke-linejoin:bevel;stroke-miterlimit:4;stroke-dasharray:none;stroke-dashoffset:1;stroke-opacity:1;marker:none;enable-background:accumulate"/><path style="color:#000;font-style:normal;font-variant:normal;font-weight:400;font-stretch:normal;font-size:medium;line-height:normal;font-family:sans-serif;font-variant-ligatures:normal;font-variant-position:normal;font-variant-caps:normal;font-variant-numeric:normal;font-variant-alternates:normal;font-feature-settings:normal;text-indent:0;text-align:start;text-decoration:none;text-decoration-line:none;text-decoration-style:solid;text-decoration-color:#000;letter-spacing:normal;word-spacing:normal;text-transform:none;direction:ltr;block-progression:tb;writing-mode:lr-tb;baseline-shift:baseline;text-anchor:start;white-space:normal;shape-padding:0;clip-rule:nonzero;display:inline;overflow:visible;visibility:visible;opacity:1;isolation:auto;mix-blend-mode:normal;color-interpolation:sRGB;color-interpolation-filters:linearRGB;solid-color:#000;solid-opacity:1;fill:#fac82e;fill-opacity:1;fill-rule:evenodd;stroke:none;stroke-width:1.62029862;stroke-linecap:butt;stroke-linejoin:miter;stroke-miterlimit:4;stroke-dasharray:none;stroke-dashoffset:0;stroke-opacity:1;color-rendering:auto;image-rendering:auto;shape-rendering:auto;text-rendering:auto;enable-background:accumulate" id="path4273" d="m -421.05722,76.865803 c 0.51742,-1.228148 1.71184,-2.130204 3.12526,-2.110596 1.63008,0.02261 3.05795,1.348806 3.03003,3.021432 -0.024,1.440786 -1.1986,2.702933 -2.67943,2.673759 -1.2701,-0.02502 -2.38123,-1.062332 -2.35124,-2.370197 0.0256,-1.116744 0.9395,-2.093655 2.09196,-2.063225 0.97951,0.02586 1.8356,0.8293 1.80505,1.842692 -0.0258,0.857219 -0.73098,1.605876 -1.62046,1.57546 -0.74873,-0.0256 -1.40179,-0.642389 -1.37171,-1.421981 0.0252,-0.652969 0.56437,-1.222818 1.247,-1.193218 0.56888,0.02467 1.0655,0.496438 1.03647,1.093998 -0.0241,0.495457 -0.43689,0.92689 -0.96027,0.898468 -0.42566,-0.02311 -0.78988,-0.376833 -0.77361,-0.826698 -0.002,0.01802 -0.0202,0.02969 -0.0209,0.04797 -0.0181,0.468213 0.39328,0.856542 0.86149,0.872553 0.57877,0.01979 1.05524,-0.486317 1.07261,-1.062464 0.0212,-0.703303 -0.59201,-1.279668 -1.28994,-1.298097 -0.84295,-0.02226 -1.52947,0.711494 -1.54861,1.546186 -0.0229,0.998886 0.84498,1.809475 1.83259,1.828933 1.17235,0.0231 2.12042,-0.994455 2.13975,-2.152344 0.0228,-1.364615 -1.16138,-2.465655 -2.50819,-2.48434 -1.57699,-0.02188 -2.84624,1.346793 -2.86372,2.902457 -0.0177,1.573924 1.18694,2.933664 2.72277,3.221011 l -0.0967,0.519959 c -1.7824,-0.33348 -3.17562,-1.901645 -3.15489,-3.746914 0.005,-0.459824 0.10216,-0.90542 0.27464,-1.314802 z m 3.34606,1.01309 -0.0586,0.185969 c 0.0645,0.0068 0.1024,-0.03159 0.10651,-0.07541 0.003,-0.0356 -0.0118,-0.05013 -0.0291,-0.05158 -0.001,-9.2e-5 0.0128,-0.01359 0.0139,-0.02874 10e-4,-0.01334 -0.0241,-0.0173 -0.0328,-0.03024 z"/><circle style="color:#000;display:inline;overflow:visible;visibility:visible;opacity:1;fill:#333;fill-opacity:1;fill-rule:nonzero;stroke:none;stroke-width:.52916682;stroke-linecap:butt;stroke-linejoin:bevel;stroke-miterlimit:4;stroke-dasharray:none;stroke-dashoffset:1;stroke-opacity:1;marker:none;enable-background:accumulate" id="path4275" cx="-424.498" cy="77.942" r=".499"/><circle id="ellipse4279" cx="-417.635" cy="77.942" r=".499" style="color:#000;display:inline;overflow:visible;visibility:visible;opacity:1;fill:#333;fill-opacity:1;fill-rule:nonzero;stroke:none;stroke-width:.52916682;stroke-linecap:butt;stroke-linejoin:bevel;stroke-miterlimit:4;stroke-dasharray:none;stroke-dashoffset:1;stroke-opacity:1;marker:none;enable-background:accumulate"/></g></g><path id="path4221" cx="-421.065" cy="77.774" r="12.7" style="color:#000;display:inline;overflow:visible;visibility:visible;opacity:1;fill:url(#linearGradient4219);fill-opacity:1;fill-rule:nonzero;stroke:none;stroke-width:.00264583;stroke-linecap:butt;stroke-linejoin:bevel;stroke-miterlimit:4;stroke-dasharray:none;stroke-dashoffset:1;stroke-opacity:1;marker:none;enable-background:accumulate"/><path id="path4223" cx="-421.065" cy="77.774" r="12.7" style="color:#000;display:inline;overflow:visible;visibility:visible;opacity:1;fill:url(#linearGradient4219);fill-opacity:1;fill-rule:nonzero;stroke:none;stroke-width:.00264583;stroke-linecap:butt;stroke-linejoin:bevel;stroke-miterlimit:4;stroke-dasharray:none;stroke-dashoffset:1;stroke-opacity:1;marker:none;enable-background:accumulate"/><path style="display:inline;fill:#fff;fill-opacity:1;stroke:none;stroke-width:.26458332;opacity:.07" id="path4245" d="m -421.06548,65.073809 v 25.4 h 4.47053 c 7.20066,0 8.22947,-1.029631 8.22947,-8.23774 v -8.92452 c 0,-7.208107 -1.02881,-8.23774 -8.22947,-8.23774 z"/><g id="g4254"><circle style="color:#000;display:inline;overflow:visible;visibility:visible;opacity:.1;fill:#000;fill-opacity:1;fill-rule:nonzero;stroke:none;stroke-width:.13229169;stroke-linecap:butt;stroke-linejoin:bevel;stroke-miterlimit:4;stroke-dasharray:none;stroke-dashoffset:1;stroke-opacity:1;marker:none;filter:url(#filter4200);enable-background:accumulate" id="circle4186" cx="-421.065" cy="82.925" r="4.399"/><circle id="circle4204" cx="-421.096" cy="82.596" r="4.399" style="color:#000;display:inline;overflow:visible;visibility:visible;opacity:.4;fill:url(#linearGradient4216);fill-opacity:1;fill-rule:nonzero;stroke:none;stroke-width:.13229169;stroke-linecap:butt;stroke-linejoin:bevel;stroke-miterlimit:4;stroke-dasharray:none;stroke-dashoffset:1;stroke-opacity:1;marker:none;filter:url(#filter4206);enable-background:accumulate"/><circle id="circle4295" cx="-421.065" cy="82.825" r="4.399" style="color:#000;display:inline;overflow:visible;visibility:visible;opacity:.1;fill:#000;fill-opacity:1;fill-rule:nonzero;stroke:none;stroke-width:.06614583;stroke-linecap:butt;stroke-linejoin:bevel;stroke-miterlimit:4;stroke-dasharray:none;stroke-dashoffset:1;stroke-opacity:1;marker:none;filter:url(#filter4309);enable-background:accumulate"/><circle style="color:#000;display:inline;overflow:visible;visibility:visible;opacity:1;fill:#dcdef5;fill-opacity:1;fill-rule:nonzero;stroke:none;stroke-width:.06614583;stroke-linecap:butt;stroke-linejoin:bevel;stroke-miterlimit:4;stroke-dasharray:none;stroke-dashoffset:1;stroke-opacity:1;marker:none;enable-background:accumulate" id="circle4256" cx="-421.065" cy="82.66" r="4.399"/><path id="ellipse4289" d="m -386.09785,186.03619 a 0.72313833,0.72313839 0 0 1 -0.36156,0.62626 0.72313833,0.72313839 0 0 1 -0.72314,0 0.72313833,0.72313839 0 0 1 -0.36157,-0.62626 l 0.72314,0 z" transform="rotate(15)" style="color:#000;display:inline;overflow:visible;visibility:visible;opacity:1;fill:#8866c8;fill-opacity:1;fill-rule:nonzero;stroke:none;stroke-width:.06614583;stroke-linecap:butt;stroke-linejoin:bevel;stroke-miterlimit:4;stroke-dasharray:none;stroke-dashoffset:1;stroke-opacity:1;marker:none;enable-background:accumulate"/><path id="ellipse4293" d="m 427.33816,-31.923328 a 0.72313833,0.72313839 0 0 1 -0.36157,0.626256 0.72313833,0.72313839 0 0 1 -0.72314,0 0.72313833,0.72313839 0 0 1 -0.36157,-0.626256 l 0.72314,0 z" transform="matrix(-0.96592583,0.25881905,0.25881905,0.96592583,0,0)" style="color:#000;display:inline;overflow:visible;visibility:visible;opacity:1;fill:#8866c8;fill-opacity:1;fill-rule:nonzero;stroke:none;stroke-width:.06614583;stroke-linecap:butt;stroke-linejoin:bevel;stroke-miterlimit:4;stroke-dasharray:none;stroke-dashoffset:1;stroke-opacity:1;marker:none;enable-background:accumulate"/><path style="color:#000;display:inline;overflow:visible;visibility:visible;opacity:.3;fill:#fff;fill-opacity:1;fill-rule:nonzero;stroke:none;stroke-width:.13229167;stroke-linecap:butt;stroke-linejoin:bevel;stroke-miterlimit:4;stroke-dasharray:none;stroke-dashoffset:1;stroke-opacity:1;marker:none;enable-background:accumulate" id="path4293" d="m -421.06536,78.24321 a 4.3987201,4.3987201 0 0 0 -4.39869,4.398698 4.3987201,4.3987201 0 0 0 0.004,0.118339 4.3987201,4.3987201 0 0 1 4.39456,-4.31705 4.3987201,4.3987201 0 0 1 4.39457,4.281393 4.3987201,4.3987201 0 0 0 0.004,-0.08268 4.3987201,4.3987201 0 0 0 -4.3987,-4.398698 z"/><circle style="color:#000;display:inline;overflow:visible;visibility:visible;opacity:1;fill:#333;fill-opacity:1;fill-rule:nonzero;stroke:none;stroke-width:.06614583;stroke-linecap:butt;stroke-linejoin:bevel;stroke-miterlimit:4;stroke-dasharray:none;stroke-dashoffset:1;stroke-opacity:1;marker:none;enable-background:accumulate" id="ellipse4197" cx="-421.065" cy="84.693" r="1.1"/></g></g></svg>