<svg xmlns="http://www.w3.org/2000/svg" xmlns:svg="http://www.w3.org/2000/svg" xmlns:xlink="http://www.w3.org/1999/xlink" id="svg6517" width="96" height="96" version="1.1"><defs id="defs6519"><linearGradient id="linearGradient6461" x1="0" x2="144" y1="970.295" y2="970.295" gradientTransform="matrix(0,-0.66666669,0.6660448,0,-866.25992,731.29077)" gradientUnits="userSpaceOnUse" xlink:href="#Background"/><linearGradient id="Background"><stop id="stop4178" offset="0" style="stop-color:#22779e;stop-opacity:1"/><stop id="stop4180" offset="1" style="stop-color:#2991c0;stop-opacity:1"/></linearGradient><filter style="color-interpolation-filters:sRGB" id="filter1121"><feFlood id="feFlood1123" flood-color="#000" flood-opacity=".6" result="flood"/><feComposite id="feComposite1125" in="flood" in2="SourceGraphic" operator="out" result="composite1"/><feGaussianBlur id="feGaussianBlur1127" in="composite1" result="blur" stdDeviation="1"/><feOffset id="feOffset1129" dx="0" dy="2" result="offset"/><feComposite id="feComposite1131" in="offset" in2="SourceGraphic" operator="atop" result="composite2"/></filter><filter style="color-interpolation-filters:sRGB" id="filter950"><feFlood id="feFlood952" flood-color="#000" flood-opacity=".25" result="flood"/><feComposite id="feComposite954" in="flood" in2="SourceGraphic" operator="in" result="composite1"/><feGaussianBlur id="feGaussianBlur956" in="composite1" result="blur" stdDeviation="1"/><feOffset id="feOffset958" dx="0" dy="1" result="offset"/><feComposite id="feComposite960" in="SourceGraphic" in2="offset" operator="over" result="composite2"/></filter><clipPath id="clipPath873" clipPathUnits="userSpaceOnUse"><g id="g875" transform="matrix(0,-0.66666667,0.66604479,0,-258.25992,677.00001)" style="fill:#f0f;fill-opacity:1;stroke:none;display:inline"><path style="fill:#f0f;fill-opacity:1;stroke:none;display:inline" id="path877" d="m 46.702703,898.22775 50.594594,0 C 138.16216,898.22775 144,904.06497 144,944.92583 l 0,50.73846 c 0,40.86071 -5.83784,46.69791 -46.702703,46.69791 l -50.594594,0 C 5.8378378,1042.3622 0,1036.525 0,995.66429 L 0,944.92583 C 0,904.06497 5.8378378,898.22775 46.702703,898.22775 Z"/></g></clipPath><filter id="filter891"><feGaussianBlur id="feGaussianBlur893" stdDeviation=".72"/></filter><style id="style867" type="text/css">.fil0{fill:#1f1a17}</style></defs><metadata id="metadata6522"/><g id="layer1" transform="translate(268,-635.29076)" style="display:inline"><path style="fill:url(#linearGradient6461);fill-opacity:1;stroke:none;display:inline;filter:url(#filter1121)" id="path6455" d="m -268,700.15563 0,-33.72973 c 0,-27.24324 3.88785,-31.13513 31.10302,-31.13513 l 33.79408,0 c 27.21507,0 31.1029,3.89189 31.1029,31.13513 l 0,33.72973 c 0,27.24325 -3.88783,31.13514 -31.1029,31.13514 l -33.79408,0 C -264.11215,731.29077 -268,727.39888 -268,700.15563 Z"/><g style="fill:#fff;fill-rule:evenodd;clip-rule:evenodd;image-rendering:optimizeQuality;shape-rendering:geometricPrecision;text-rendering:geometricPrecision" id="g878" transform="matrix(12.39023,0,0,12.39023,-292.43888,632.07116)"><g id="Layer_x0020_1" style="fill:#fff"><metadata id="CorelCorpID_0Corel-Layer"/><path id="path871" d="m 5.84646,1.91309 c 0.579315,0 1.1068,0.222004 1.50223,0.585472 C 7.154934,2.493432 6.961544,2.60859 6.953509,2.872393 6.937249,3.405739 7.591245,3.519259 7.238796,4.592003 L 6.947288,5.479306 6.153367,3.140656 C 6.141076,3.104455 6.155407,3.083888 6.199895,3.083888 l 0.224449,0 c 0.011665,0 0.021201,-0.00996 0.021201,-0.022158 l 0,-0.132937 c 0,-0.012193 -0.00956,-0.022657 -0.021201,-0.022153 -0.425051,0.018587 -0.847602,0.018713 -1.26756,0 C 5.145146,2.9061282 5.135583,2.91661 5.135583,2.928793 l 0,0.132937 c 0,0.012185 0.00954,0.022158 0.021201,0.022158 l 0.225677,0 c 0.050201,0 0.064256,0.016728 0.076091,0.049087 L 5.78482,4.025136 5.294072,5.506786 4.487548,3.130966 C 4.477461,3.101249 4.489568,3.083891 4.51832,3.083891 l 0.25715,0 c 0.011661,0 0.021197,-0.00996 0.021197,-0.022158 l 0,-0.132937 C 4.796667,2.916603 4.787097,2.906032 4.77547,2.906643 4.505671,2.920974 4.23484,2.923856 3.982564,2.926446 4.3784489,2.3166032 5.0653829,1.9130962 5.8464629,1.9130962 z m 1.95322,1.16333 c 0.17065,0.314413 0.267551,0.674642 0.267551,1.05744 0,0.840051 -0.466752,1.57124 -1.15494,1.94855 L 7.605027,4.12073 C 7.712259,3.817092 7.811858,3.406809 7.799684,3.07642 Z M 6.59001,6.22685 C 6.357522,6.309504 6.10727,6.354637 5.846455,6.354637 5.621809,6.354637 5.405018,6.321129 5.200624,6.25907 L 5.88477,4.2984601 6.59001,6.2268501 Z M 4.89622,6.1414051 c -0.751012,-0.356169 -1.27054,-1.12126 -1.27054,-2.00754 0,-0.32852 0.071465,-0.640378 0.199547,-0.920957 L 4.896217,6.1414081 z m 0.950232,-4.43668 c 1.34134,0 2.42914,1.0878 2.42914,2.42914 0,1.34134 -1.0878,2.42914 -2.42914,2.42914 -1.34134,0 -2.42914,-1.0878 -2.42914,-2.42914 C 3.417312,2.7925251 4.505112,1.7047251 5.846452,1.7047251 z m 0,-0.153535 c 1.42613,0 2.58268,1.15655 2.58268,2.58268 0,1.42613 -1.15655,2.58268 -2.58268,2.58268 -1.42613,0 -2.58268,-1.15655 -2.58268,-2.58268 C 3.263772,2.7077401 4.420322,1.5511901 5.846452,1.5511901 Z" class="fil0" style="fill:#fff"/></g></g></g><g id="layer2" style="display:none"><g style="display:inline" id="g4394" clip-path="none" transform="translate(-340.00001,-581)"><g id="g855"><g id="g870" clip-path="url(#clipPath873)" style="opacity:.6;filter:url(#filter891)"><path id="path844" d="m 264,552.36218 c 0,6.62742 -5.37258,12 -12,12 -6.62742,0 -12,-5.37258 -12,-12 0,-6.62741 5.37258,-12 12,-12 C 258.62742,540.36218 264,545.73477 264,552.36218 Z" transform="matrix(1.4999992,0,0,1.4999992,-29.999795,-237.54282)" style="color:#000;fill:#000;fill-opacity:1;fill-rule:nonzero;stroke:none;stroke-width:4;marker:none;visibility:visible;display:inline;overflow:visible;enable-background:accumulate"/></g><g id="g862"><path style="color:#000;fill:#f5f5f5;fill-opacity:1;fill-rule:nonzero;stroke:none;stroke-width:4;marker:none;visibility:visible;display:inline;overflow:visible;enable-background:accumulate" id="path4398" d="m 264,552.36218 c 0,6.62742 -5.37258,12 -12,12 -6.62742,0 -12,-5.37258 -12,-12 0,-6.62741 5.37258,-12 12,-12 C 258.62742,540.36218 264,545.73477 264,552.36218 Z" transform="matrix(1.4999992,0,0,1.4999992,-29.999795,-238.54282)"/><path id="path4400" d="m 264,552.36218 c 0,6.62742 -5.37258,12 -12,12 -6.62742,0 -12,-5.37258 -12,-12 0,-6.62741 5.37258,-12 12,-12 C 258.62742,540.36218 264,545.73477 264,552.36218 Z" transform="matrix(1.25,0,0,1.25,33,-100.45273)" style="color:#000;fill:#dd4814;fill-opacity:1;fill-rule:nonzero;stroke:none;stroke-width:4;marker:none;visibility:visible;display:inline;overflow:visible;enable-background:accumulate"/><path style="color:#000;fill:#f5f5f5;fill-opacity:1;fill-rule:nonzero;stroke:none;stroke-width:3;marker:none;visibility:visible;display:inline;overflow:visible;enable-background:accumulate" id="path4459" d="m 669.8173,595.77657 c -0.39132,0.22593 -3.62645,-1.90343 -4.07583,-1.95066 -0.44938,-0.0472 -4.05653,1.36297 -4.39232,1.06062 -0.3358,-0.30235 0.68963,-4.03715 0.59569,-4.47913 -0.0939,-0.44198 -2.5498,-3.43681 -2.36602,-3.8496 0.18379,-0.41279 4.05267,-0.59166 4.44398,-0.81759 0.39132,-0.22593 2.48067,-3.48704 2.93005,-3.4398 0.44938,0.0472 1.81505,3.67147 2.15084,3.97382 0.3358,0.30236 4.08294,1.2817 4.17689,1.72369 0.0939,0.44198 -2.9309,2.86076 -3.11469,3.27355 C 669.9821,591.68426 670.20862,595.55064 669.8173,595.77657 Z" transform="matrix(1.511423,-0.16366377,0.16366377,1.511423,-755.37346,-191.93651)"/></g></g></g></g></svg>